# xmcd CD database file
#
# Track frame offsets:
#	150
#	20315
#	43468
#	64587
#	86399
#	106334
#	121389
#	143480
#	161175
#	182789
#	203246
#
# Disc length: 3008 seconds
#
# Revision: 11
# Processed by: cddbd v1.5.1PL0 Copyright (c) Steve Scherf et al.
# Submitted via: CDex 1.51
#
DISCID=940bbe0b
DTITLE=TUBE - LANI KAI
DYEAR=2000
DGENRE=JPop
TTITLE0=LANI KAI〜天国の海〜
TTITLE1=真夏へCount Down
TTITLE2=Truth of Time
TTITLE3=−恋愛旅団−
TTITLE4=OVER the TEARS
TTITLE5=まっ黒K3
TTITLE6=僕が僕であるために
TTITLE7=Treasure Island
TTITLE8=What's Love? 君は知らない
TTITLE9=Half Moon
TTITLE10=虹になりたい(EXTRA DRY MIX)
EXTD=YEAR: 2000
EXTT0=
EXTT1=
EXTT2=
EXTT3=
EXTT4=
EXTT5=
EXTT6=
EXTT7=
EXTT8=
EXTT9=
EXTT10=
PLAYORDER=
